<?xml version="1.0" encoding="utf-8"?>
<!-- Generator: Adobe Illustrator 15.0.0, SVG Export Plug-In . SVG Version: 6.00 Build 0)  -->
<!DOCTYPE svg PUBLIC "-//W3C//DTD SVG 1.1//EN" "http://www.w3.org/Graphics/SVG/1.1/DTD/svg11.dtd">
<svg xmlns="http://www.w3.org/2000/svg" xmlns:xlink="http://www.w3.org/1999/xlink" version="1.1" id="Layer_1" x="0px" y="0px" width="15px" height="15px" viewBox="0 0 26 26" enable-background="new 0 0 26 26" xml:space="preserve">

<path fill="none" stroke="#000000" stroke-width="2.0803" stroke-miterlimit="10" d="M17,4.429C17,5.849,15.881,7,14.5,7h-3  C10.119,7,9,5.849,9,4.429V3.571C9,2.15,10.119,1,11.5,1h3C15.881,1,17,2.15,17,3.571V4.429z"/>
<path fill="none" stroke="#000000" stroke-width="2" stroke-miterlimit="10" d="M21,23c0,1.104-0.896,2-2,2H7c-1.104,0-2-0.896-2-2  V6h16V23z"/>
<line fill="none" stroke="#000000" stroke-width="2" stroke-miterlimit="10" x1="17" y1="10" x2="17" y2="22"/>
<line fill="none" stroke="#000000" stroke-width="2" stroke-miterlimit="10" x1="13" y1="10" x2="13" y2="22"/>
<line fill="none" stroke="#000000" stroke-width="2" stroke-miterlimit="10" x1="9" y1="10" x2="9" y2="22"/>
<path fill="#000000" d="M23,6V5c0-0.551-0.449-1-1-1H4C3.449,4,3,4.449,3,5v1H2v2h2h18h2V6H23z"/>
</svg>
